{
  "accessors": [
    {
      "bufferView": 2,
      "componentType": 5126,
      "count": 363,
      "max": [
        0.9994500279426575,
        1.0749000310897827,
        0.16504999995231628
      ],
      "min": [
        -1.0715099573135376,
        -0.9991099834442139,
        -0.9528499841690063
      ],
      "type": "VEC3"
    },
    {
      "bufferView": 2,
      "byteOffset": 4356,
      "componentType": 5126,
      "count": 363,
      "max": [
        1.0,
        0.9951841831207275,
        0.9476910829544067
      ],
      "min": [
        -0.9951654672622681,
        -1.0,
        -1.0
      ],
      "type": "VEC3"
    },
    {
      "bufferView": 1,
      "componentType": 5126,
      "count": 363,
      "max": [
        0.6819999814033508,
        0.8827700018882751
      ],
      "min": [
        0.0,
        0.0
      ],
      "type": "VEC2"
    },
    {
      "bufferView": 0,
      "componentType": 5125,
      "count": 1806,
      "type": "SCALAR"
    },
    {
      "bufferView": 2,
      "byteOffset": 8712,
      "componentType": 5126,
      "count": 65533,
      "max": [
        0.8417999744415283,
        0.7652599811553955,
        0.9740099906921387
      ],
      "min": [
        -0.9071999788284302,
        -0.9164199829101563,
        0.055410001426935196
      ],
      "type": "VEC3"
    },
    {
      "bufferView": 2,
      "byteOffset": 795108,
      "componentType": 5126,
      "count": 65533,
      "max": [
        0.999994695186615,
        0.9999263286590576,
        0.9981539249420166
      ],
      "min": [
        -0.9999974370002747,
        -0.9999848008155823,
        -0.9994329810142517
      ],
      "type": "VEC3"
    },
    {
      "bufferView": 1,
      "byteOffset": 2904,
      "componentType": 5126,
      "count": 65533,
      "max": [
        0.9993399977684021,
        0.9993399977684021
      ],
      "min": [
        0.0006600000197067857,
        0.0006600000197067857
      ],
      "type": "VEC2"
    },
    {
      "bufferView": 0,
      "byteOffset": 7224,
      "componentType": 5125,
      "count": 134955,
      "type": "SCALAR"
    },
    {
      "bufferView": 2,
      "byteOffset": 1581504,
      "componentType": 5126,
      "count": 27577,
      "max": [
        0.6934800148010254,
        0.6273400187492371,
        0.9764699935913086
      ],
      "min": [
        -0.7455700039863586,
        -0.4477500021457672,
        0.06201000139117241
      ],
      "type": "VEC3"
    },
    {
      "bufferView": 2,
      "byteOffset": 1912428,
      "componentType": 5126,
      "count": 27577,
      "max": [
        0.9999580979347229,
        0.9998136162757874,
        0.9981518983840942
      ],
      "min": [
        -0.9999839663505554,
        -0.9999848008155823,
        -0.9994329810142517
      ],
      "type": "VEC3"
    },
    {
      "bufferView": 1,
      "byteOffset": 527168,
      "componentType": 5126,
      "count": 27577,
      "max": [
        0.9993399977684021,
        0.9993399977684021
      ],
      "min": [
        0.0006600000197067857,
        0.0006600000197067857
      ],
      "type": "VEC2"
    },
    {
      "bufferView": 0,
      "byteOffset": 547044,
      "componentType": 5125,
      "count": 58077,
      "type": "SCALAR"
    },
    {
      "bufferView": 2,
      "byteOffset": 2243352,
      "componentType": 5126,
      "count": 65532,
      "max": [
        1.0007100105285645,
        1.107509970664978,
        0.24026000499725342
      ],
      "min": [
        -1.1240299940109253,
        -1.0139199495315552,
        -0.006430000066757202
      ],
      "type": "VEC3"
    },
    {
      "bufferView": 2,
      "byteOffset": 3029736,
      "componentType": 5126,
      "count": 65532,
      "max": [
        0.9999969601631165,
        0.9999950528144836,
        0.8216359615325928
      ],
      "min": [
        -0.9999950528144836,
        -0.9999609589576721,
        -0.7486683130264282
      ],
      "type": "VEC3"
    },
    {
      "bufferView": 1,
      "byteOffset": 747784,
      "componentType": 5126,
      "count": 65532,
      "max": [
        0.9944000244140625,
        0.9947999715805054
      ],
      "min": [
        0.00559999980032444,
        0.005200000014156103
      ],
      "type": "VEC2"
    },
    {
      "bufferView": 0,
      "byteOffset": 779352,
      "componentType": 5125,
      "count": 147426,
      "type": "SCALAR"
    },
    {
      "bufferView": 2,
      "byteOffset": 3816120,
      "componentType": 5126,
      "count": 30440,
      "max": [
        1.0011199712753296,
        1.0871399641036987,
        0.2372799962759018
      ],
      "min": [
        -1.069599986076355,
        -1.0385299921035767,
        -0.0007099999929778278
      ],
      "type": "VEC3"
    },
    {
      "bufferView": 2,
      "byteOffset": 4181400,
      "componentType": 5126,
      "count": 30440,
      "max": [
        0.9998518824577332,
        0.9999302625656128,
        0.7618249654769897
      ],
      "min": [
        -0.9999567866325378,
        -0.9999988675117493,
        -0.7352461218833923
      ],
      "type": "VEC3"
    },
    {
      "bufferView": 1,
      "byteOffset": 1272040,
      "componentType": 5126,
      "count": 30440,
      "max": [
        0.9944000244140625,
        0.9947999715805054
      ],
      "min": [
        0.00559999980032444,
        0.005200000014156103
      ],
      "type": "VEC2"
    },
    {
      "bufferView": 0,
      "byteOffset": 1369056,
      "componentType": 5125,
      "count": 68448,
      "type": "SCALAR"
    },
    {
      "bufferView": 2,
      "byteOffset": 4546680,
      "componentType": 5126,
      "count": 200,
      "max": [
        0.9993699789047241,
        1.0749000310897827,
        0.16504999995231628
      ],
      "min": [
        -1.0715099573135376,
        -0.9985700249671936,
        0.006579999811947346
      ],
      "type": "VEC3"
    },
    {
      "bufferView": 2,
      "byteOffset": 4549080,
      "componentType": 5126,
      "count": 200,
      "max": [
        0.23099535703659058,
        0.3379058837890625,
        0.9999493956565857
      ],
      "min": [
        -0.4298604130744934,
        -0.4121633470058441,
        0.8850492835044861
      ],
      "type": "VEC3"
    },
    {
      "bufferView": 1,
      "byteOffset": 1515560,
      "componentType": 5126,
      "count": 200,
      "max": [
        0.9998199939727783,
        0.9998900294303894
      ],
      "min": [
        0.00018000000272877514,
        0.00011000000085914508
      ],
      "type": "VEC2"
    },
    {
      "bufferView": 0,
      "byteOffset": 1642848,
      "componentType": 5125,
      "count": 876,
      "type": "SCALAR"
    },
    {
      "bufferView": 2,
      "byteOffset": 4551480,
      "componentType": 5126,
      "count": 65532,
      "max": [
        0.5111799836158752,
        0.7162899971008301,
        0.9017699956893921
      ],
      "min": [
        -1.0253900289535522,
        -0.3652699887752533,
        0.06458999961614609
      ],
      "type": "VEC3"
    },
    {
      "bufferView": 2,
      "byteOffset": 5337864,
      "componentType": 5126,
      "count": 65532,
      "max": [
        0.999944269657135,
        0.999994695186615,
        0.9997798800468445
      ],
      "min": [
        -0.9999884963035583,
        -0.9999982714653015,
        -0.9999357461929321
      ],
      "type": "VEC3"
    },
    {
      "bufferView": 1,
      "byteOffset": 1517160,
      "componentType": 5126,
      "count": 65532,
      "max": [
        0.9990900158882141,
        0.9990900158882141
      ],
      "min": [
        0.000910000002477318,
        0.000910000002477318
      ],
      "type": "VEC2"
    },
    {
      "bufferView": 0,
      "byteOffset": 1646352,
      "componentType": 5125,
      "count": 155079,
      "type": "SCALAR"
    },
    {
      "bufferView": 2,
      "byteOffset": 6124248,
      "componentType": 5126,
      "count": 65532,
      "max": [
        0.3495199978351593,
        0.7278299927711487,
        0.6431400179862976
      ],
      "min": [
        -0.6986299753189087,
        -0.799049973487854,
        -0.008449999615550041
      ],
      "type": "VEC3"
    },
    {
      "bufferView": 2,
      "byteOffset": 6910632,
      "componentType": 5126,
      "count": 65532,
      "max": [
        0.9999956488609314,
        0.9999753832817078,
        0.999947726726532
      ],
      "min": [
        -0.9999973177909851,
        -0.9999890923500061,
        -0.9999037384986877
      ],
      "type": "VEC3"
    },
    {
      "bufferView": 1,
      "byteOffset": 2041416,
      "componentType": 5126,
      "count": 65532,
      "max": [
        0.9990900158882141,
        0.9990900158882141
      ],
      "min": [
        0.000910000002477318,
        0.000910000002477318
      ],
      "type": "VEC2"
    },
    {
      "bufferView": 0,
      "byteOffset": 2266668,
      "componentType": 5125,
      "count": 156306,
      "type": "SCALAR"
    },
    {
      "bufferView": 2,
      "byteOffset": 7697016,
      "componentType": 5126,
      "count": 65532,
      "max": [
        0.7708899974822998,
        0.3562600016593933,
        0.6988499760627747
      ],
      "min": [
        -0.6065400242805481,
        -0.6317899823188782,
        0.03669000044465065
      ],
      "type": "VEC3"
    },
    {
      "bufferView": 2,
      "byteOffset": 8483400,
      "componentType": 5126,
      "count": 65532,
      "max": [
        0.9999954104423523,
        0.9999986290931702,
        0.9999152421951294
      ],
      "min": [
        -0.9999969601631165,
        -0.9999977946281433,
        -0.9999357461929321
      ],
      "type": "VEC3"
    },
    {
      "bufferView": 1,
      "byteOffset": 2565672,
      "componentType": 5126,
      "count": 65532,
      "max": [
        0.9990900158882141,
        0.9990900158882141
      ],
      "min": [
        0.000910000002477318,
        0.000910000002477318
      ],
      "type": "VEC2"
    },
    {
      "bufferView": 0,
      "byteOffset": 2891892,
      "componentType": 5125,
      "count": 154482,
      "type": "SCALAR"
    },
    {
      "bufferView": 2,
      "byteOffset": 9269784,
      "componentType": 5126,
      "count": 2614,
      "max": [
        0.47398000955581665,
        0.35460999608039856,
        0.6986799836158752
      ],
      "min": [
        0.15286000072956085,
        0.09837000072002411,
        0.15452000498771667
      ],
      "type": "VEC3"
    },
    {
      "bufferView": 2,
      "byteOffset": 9301152,
      "componentType": 5126,
      "count": 2614,
      "max": [
        0.9996193051338196,
        0.9999052882194519,
        0.9986775517463684
      ],
      "min": [
        -0.9995043277740479,
        -0.9999777674674988,
        -0.9970684051513672
      ],
      "type": "VEC3"
    },
    {
      "bufferView": 1,
      "byteOffset": 3089928,
      "componentType": 5126,
      "count": 2614,
      "max": [
        0.996429979801178,
        0.9965699911117554
      ],
      "min": [
        0.000910000002477318,
        0.000910000002477318
      ],
      "type": "VEC2"
    },
    {
      "bufferView": 0,
      "byteOffset": 3509820,
      "componentType": 5125,
      "count": 7173,
      "type": "SCALAR"
    },
    {
      "bufferView": 2,
      "byteOffset": 9332520,
      "componentType": 5126,
      "count": 24,
      "max": [
        1.0,
        1.0,
        1.0
      ],
      "min": [
        -1.0,
        -1.0,
        -1.0
      ],
      "type": "VEC3"
    },
    {
      "bufferView": 2,
      "byteOffset": 9332808,
      "componentType": 5126,
      "count": 24,
      "max": [
        1.0,
        1.0,
        1.0
      ],
      "min": [
        -1.0,
        -1.0,
        -1.0
      ],
      "type": "VEC3"
    },
    {
      "bufferView": 1,
      "byteOffset": 3110840,
      "componentType": 5126,
      "count": 24,
      "max": [
        0.9994500279426575,
        0.9999300241470337
      ],
      "min": [
        7.000000186963007e-05,
        7.000000186963007e-05
      ],
      "type": "VEC2"
    },
    {
      "bufferView": 0,
      "byteOffset": 3538512,
      "componentType": 5125,
      "count": 36,
      "type": "SCALAR"
    }
  ],
  "asset": {
    "extras": {
      "author": "pinguinoconpulgares (https://sketchfab.com/pinguinoconpulgares)",
      "license": "CC-BY-4.0 (http://creativecommons.org/licenses/by/4.0/)",
      "source": "https://sketchfab.com/3d-models/blue-alien-forest-be6150c8bfd248d6a89007859bf2a05b",
      "title": "BLUE ALIEN FOREST"
    },
    "generator": "Sketchfab-12.66.0",
    "version": "2.0"
  },
  "bufferViews": [
    {
      "buffer": 0,
      "byteLength": 3538656,
      "name": "floatBufferViews",
      "target": 34963
    },
    {
      "buffer": 0,
      "byteLength": 3111032,
      "byteOffset": 3538656,
      "byteStride": 8,
      "name": "floatBufferViews",
      "target": 34962
    },
    {
      "buffer": 0,
      "byteLength": 9333096,
      "byteOffset": 6649688,
      "byteStride": 12,
      "name": "floatBufferViews",
      "target": 34962
    }
  ],
  "buffers": [
    {
      "byteLength": 15982784,
      "uri": "scene.bin"
    }
  ],
  "extensionsUsed": [
    "KHR_materials_unlit"
  ],
  "images": [
    {
      "uri": "textures/material_baseColor.png"
    },
    {
      "uri": "textures/ARBOL2_baseColor.png"
    },
    {
      "uri": "textures/GRASS_baseColor.png"
    },
    {
      "uri": "textures/GROUND_baseColor.png"
    },
    {
      "uri": "textures/TREE1_baseColor.png"
    }
  ],
  "materials": [
    {
      "doubleSided": true,
      "extensions": {
        "KHR_materials_unlit": {}
      },
      "name": "material",
      "pbrMetallicRoughness": {
        "baseColorTexture": {
          "index": 0
        },
        "metallicFactor": 0.0
      }
    },
    {
      "doubleSided": true,
      "extensions": {
        "KHR_materials_unlit": {}
      },
      "name": "GROUND.001",
      "pbrMetallicRoughness": {
        "baseColorFactor": [
          0.1909450304930398,
          0.1690163917548371,
          0.14896286196887887,
          1.0
        ],
        "metallicFactor": 0.0
      }
    },
    {
      "doubleSided": true,
      "extensions": {
        "KHR_materials_unlit": {}
      },
      "name": "ARBOL2",
      "pbrMetallicRoughness": {
        "baseColorTexture": {
          "index": 1
        },
        "metallicFactor": 0.0
      }
    },
    {
      "doubleSided": true,
      "extensions": {
        "KHR_materials_unlit": {}
      },
      "name": "GRASS",
      "pbrMetallicRoughness": {
        "baseColorTexture": {
          "index": 2
        },
        "metallicFactor": 0.0
      }
    },
    {
      "doubleSided": true,
      "extensions": {
        "KHR_materials_unlit": {}
      },
      "name": "GROUND",
      "pbrMetallicRoughness": {
        "baseColorTexture": {
          "index": 3
        },
        "metallicFactor": 0.0
      }
    },
    {
      "doubleSided": true,
      "extensions": {
        "KHR_materials_unlit": {}
      },
      "name": "TREE1",
      "pbrMetallicRoughness": {
        "baseColorTexture": {
          "index": 4
        },
        "metallicFactor": 0.0
      }
    }
  ],
  "meshes": [
    {
      "name": "Plane",
      "primitives": [
        {
          "attributes": {
            "NORMAL": 1,
            "POSITION": 0,
            "TEXCOORD_0": 2
          },
          "indices": 3,
          "material": 1,
          "mode": 4
        }
      ]
    },
    {
      "name": "Plane",
      "primitives": [
        {
          "attributes": {
            "NORMAL": 5,
            "POSITION": 4,
            "TEXCOORD_0": 6
          },
          "indices": 7,
          "material": 2,
          "mode": 4
        }
      ]
    },
    {
      "name": "Plane",
      "primitives": [
        {
          "attributes": {
            "NORMAL": 9,
            "POSITION": 8,
            "TEXCOORD_0": 10
          },
          "indices": 11,
          "material": 2,
          "mode": 4
        }
      ]
    },
    {
      "name": "Plane",
      "primitives": [
        {
          "attributes": {
            "NORMAL": 13,
            "POSITION": 12,
            "TEXCOORD_0": 14
          },
          "indices": 15,
          "material": 3,
          "mode": 4
        }
      ]
    },
    {
      "name": "Plane",
      "primitives": [
        {
          "attributes": {
            "NORMAL": 17,
            "POSITION": 16,
            "TEXCOORD_0": 18
          },
          "indices": 19,
          "material": 3,
          "mode": 4
        }
      ]
    },
    {
      "name": "Plane",
      "primitives": [
        {
          "attributes": {
            "NORMAL": 21,
            "POSITION": 20,
            "TEXCOORD_0": 22
          },
          "indices": 23,
          "material": 4,
          "mode": 4
        }
      ]
    },
    {
      "name": "Plane",
      "primitives": [
        {
          "attributes": {
            "NORMAL": 25,
            "POSITION": 24,
            "TEXCOORD_0": 26
          },
          "indices": 27,
          "material": 5,
          "mode": 4
        }
      ]
    },
    {
      "name": "Plane",
      "primitives": [
        {
          "attributes": {
            "NORMAL": 29,
            "POSITION": 28,
            "TEXCOORD_0": 30
          },
          "indices": 31,
          "material": 5,
          "mode": 4
        }
      ]
    },
    {
      "name": "Plane",
      "primitives": [
        {
          "attributes": {
            "NORMAL": 33,
            "POSITION": 32,
            "TEXCOORD_0": 34
          },
          "indices": 35,
          "material": 5,
          "mode": 4
        }
      ]
    },
    {
      "name": "Plane",
      "primitives": [
        {
          "attributes": {
            "NORMAL": 37,
            "POSITION": 36,
            "TEXCOORD_0": 38
          },
          "indices": 39,
          "material": 5,
          "mode": 4
        }
      ]
    },
    {
      "name": "Cube",
      "primitives": [
        {
          "attributes": {
            "NORMAL": 41,
            "POSITION": 40,
            "TEXCOORD_0": 42
          },
          "indices": 43,
          "material": 0,
          "mode": 4
        }
      ]
    }
  ],
  "nodes": [
    {
      "children": [
        1
      ],
      "matrix": [
        1.0,
        0.0,
        0.0,
        0.0,
        0.0,
        2.220446049250313e-16,
        -1.0,
        0.0,
        0.0,
        1.0,
        2.220446049250313e-16,
        0.0,
        0.0,
        0.0,
        0.0,
        1.0
      ],
      "name": "Sketchfab_model"
    },
    {
      "children": [
        2,
        4,
        15,
        17,
        19
      ],
      "name": "Root"
    },
    {
      "children": [
        3
      ],
      "matrix": [
        0.20106000000000002,
        -0.011220000000000003,
        -0.027590000000000007,
        0.0,
        -0.0025700000000000007,
        0.18107,
        -0.09231000000000002,
        0.0,
        0.029680000000000005,
        0.09166000000000003,
        0.17897000000000002,
        0.0,
        5.42315,
        4.9759400000000005,
        10.127069999999998,
        1.0
      ],
      "name": "Hemi"
    },
    {
      "name": "Hemi"
    },
    {
      "children": [
        5,
        6,
        7,
        8,
        9,
        10,
        11,
        12,
        13,
        14
      ],
      "matrix": [
        6.28573,
        0.0,
        0.0,
        0.0,
        0.0,
        6.28573,
        0.0,
        0.0,
        0.0,
        0.0,
        6.28573,
        0.0,
        1.05121,
        0.17046000000000003,
        0.49963,
        1.0
      ],
      "name": "Plane"
    },
    {
      "mesh": 0,
      "name": "Plane"
    },
    {
      "mesh": 1,
      "name": "Plane"
    },
    {
      "mesh": 2,
      "name": "Plane"
    },
    {
      "mesh": 3,
      "name": "Plane"
    },
    {
      "mesh": 4,
      "name": "Plane"
    },
    {
      "mesh": 5,
      "name": "Plane"
    },
    {
      "mesh": 6,
      "name": "Plane"
    },
    {
      "mesh": 7,
      "name": "Plane"
    },
    {
      "mesh": 8,
      "name": "Plane"
    },
    {
      "mesh": 9,
      "name": "Plane"
    },
    {
      "children": [
        16
      ],
      "matrix": [
        1.0,
        0.0,
        0.0,
        0.0,
        0.0,
        1.0,
        0.0,
        0.0,
        0.0,
        0.0,
        1.0,
        0.0,
        2.1188599999999997,
        0.43829,
        17.44728,
        1.0
      ],
      "name": "Hemi.001"
    },
    {
      "name": "Hemi.001"
    },
    {
      "children": [
        18
      ],
      "matrix": [
        1.0,
        0.0,
        0.0,
        0.0,
        0.0,
        -1.0,
        -0.0,
        0.0,
        0.0,
        0.0,
        -1.0,
        0.0,
        -4.2693900000000005,
        -0.9431700000000001,
        10.37715,
        1.0
      ],
      "name": "Hemi.002"
    },
    {
      "name": "Hemi.002"
    },
    {
      "children": [
        20
      ],
      "matrix": [
        18.61222,
        0.0,
        0.0,
        0.0,
        0.0,
        18.61222,
        0.0,
        0.0,
        0.0,
        0.0,
        18.61222,
        0.0,
        0.2736,
        -0.94228,
        1.04768,
        1.0
      ],
      "name": "Cube"
    },
    {
      "mesh": 10,
      "name": "Cube"
    }
  ],
  "samplers": [
    {
      "magFilter": 9729,
      "minFilter": 9987,
      "wrapS": 10497,
      "wrapT": 10497
    }
  ],
  "scene": 0,
  "scenes": [
    {
      "name": "Sketchfab_Scene",
      "nodes": [
        0
      ]
    }
  ],
  "textures": [
    {
      "sampler": 0,
      "source": 0
    },
    {
      "sampler": 0,
      "source": 1
    },
    {
      "sampler": 0,
      "source": 2
    },
    {
      "sampler": 0,
      "source": 3
    },
    {
      "sampler": 0,
      "source": 4
    }
  ]
}
